<svg width="90" height="24" viewBox="0 0 90 24" fill="none" xmlns="http://www.w3.org/2000/svg">
<path d="M2.00002 12C2.00002 6.47716 6.47718 2 12 2C17.5229 2 22 6.47716 22 12C22 17.5228 17.5229 22 12 22C10.2547 22 8.61136 21.552 7.18148 20.7644L3.29118 21.9484C2.93788 22.056 2.55406 21.96 2.29292 21.6988C2.03178 21.4378 1.93582 21.0538 2.04336 20.7006L3.22868 16.8059C2.44536 15.379 2.00002 13.7402 2.00002 12ZM8 11C8 11.5523 8.44772 12 9 12H15C15.5523 12 16 11.5523 16 11C16 10.4477 15.5523 10 15 10H9C8.44772 10 8 10.4477 8 11ZM9 14C8.44772 14 8 14.4477 8 15C8 15.5523 8.44772 16 9 16H13C13.5523 16 14 15.5523 14 15C14 14.4477 13.5523 14 13 14H9Z" fill="#070928" fill-opacity="0.75"/>
<path d="M36.2656 13.293C36.1602 14.1953 35.8262 14.8926 35.2637 15.3848C34.7051 15.873 33.9609 16.1172 33.0312 16.1172C32.0234 16.1172 31.2148 15.7559 30.6055 15.0332C30 14.3105 29.6973 13.3438 29.6973 12.1328V11.3125C29.6973 10.5195 29.8379 9.82227 30.1191 9.2207C30.4043 8.61914 30.8066 8.1582 31.3262 7.83789C31.8457 7.51367 32.4473 7.35156 33.1309 7.35156C34.0371 7.35156 34.7637 7.60547 35.3105 8.11328C35.8574 8.61719 36.1758 9.31641 36.2656 10.2109H35.1348C35.0371 9.53125 34.8242 9.03906 34.4961 8.73438C34.1719 8.42969 33.7168 8.27734 33.1309 8.27734C32.4121 8.27734 31.8477 8.54297 31.4375 9.07422C31.0312 9.60547 30.8281 10.3613 30.8281 11.3418V12.168C30.8281 13.0938 31.0215 13.8301 31.4082 14.377C31.7949 14.9238 32.3359 15.1973 33.0312 15.1973C33.6562 15.1973 34.1348 15.0566 34.4668 14.7754C34.8027 14.4902 35.0254 13.9961 35.1348 13.293H36.2656ZM37.3496 12.7715C37.3496 12.1504 37.4707 11.5918 37.7129 11.0957C37.959 10.5996 38.2988 10.2168 38.7324 9.94727C39.1699 9.67773 39.668 9.54297 40.2266 9.54297C41.0898 9.54297 41.7871 9.8418 42.3184 10.4395C42.8535 11.0371 43.1211 11.832 43.1211 12.8242V12.9004C43.1211 13.5176 43.002 14.0723 42.7637 14.5645C42.5293 15.0527 42.1914 15.4336 41.75 15.707C41.3125 15.9805 40.8086 16.1172 40.2383 16.1172C39.3789 16.1172 38.6816 15.8184 38.1465 15.2207C37.6152 14.623 37.3496 13.832 37.3496 12.8477V12.7715ZM38.4395 12.9004C38.4395 13.6035 38.6016 14.168 38.9258 14.5938C39.2539 15.0195 39.6914 15.2324 40.2383 15.2324C40.7891 15.2324 41.2266 15.0176 41.5508 14.5879C41.875 14.1543 42.0371 13.5488 42.0371 12.7715C42.0371 12.0762 41.8711 11.5137 41.5391 11.084C41.2109 10.6504 40.7734 10.4336 40.2266 10.4336C39.6914 10.4336 39.2598 10.6465 38.9316 11.0723C38.6035 11.498 38.4395 12.1074 38.4395 12.9004ZM45.5 9.66016L45.5293 10.3633C45.9941 9.81641 46.6211 9.54297 47.4102 9.54297C48.2969 9.54297 48.9004 9.88281 49.2207 10.5625C49.4316 10.2578 49.7051 10.0117 50.041 9.82422C50.3809 9.63672 50.7812 9.54297 51.2422 9.54297C52.6328 9.54297 53.3398 10.2793 53.3633 11.752V16H52.2793V11.8164C52.2793 11.3633 52.1758 11.0254 51.9688 10.8027C51.7617 10.5762 51.4141 10.4629 50.9258 10.4629C50.5234 10.4629 50.1895 10.584 49.9238 10.8262C49.6582 11.0645 49.5039 11.3867 49.4609 11.793V16H48.3711V11.8457C48.3711 10.9238 47.9199 10.4629 47.0176 10.4629C46.3066 10.4629 45.8203 10.7656 45.5586 11.3711V16H44.4746V9.66016H45.5ZM56.0234 9.66016L56.0527 10.3633C56.5176 9.81641 57.1445 9.54297 57.9336 9.54297C58.8203 9.54297 59.4238 9.88281 59.7441 10.5625C59.9551 10.2578 60.2285 10.0117 60.5645 9.82422C60.9043 9.63672 61.3047 9.54297 61.7656 9.54297C63.1562 9.54297 63.8633 10.2793 63.8867 11.752V16H62.8027V11.8164C62.8027 11.3633 62.6992 11.0254 62.4922 10.8027C62.2852 10.5762 61.9375 10.4629 61.4492 10.4629C61.0469 10.4629 60.7129 10.584 60.4473 10.8262C60.1816 11.0645 60.0273 11.3867 59.9844 11.793V16H58.8945V11.8457C58.8945 10.9238 58.4434 10.4629 57.541 10.4629C56.8301 10.4629 56.3438 10.7656 56.082 11.3711V16H54.998V9.66016H56.0234ZM68.1582 16.1172C67.2988 16.1172 66.5996 15.8359 66.0605 15.2734C65.5215 14.707 65.252 13.9512 65.252 13.0059V12.8066C65.252 12.1777 65.3711 11.6172 65.6094 11.125C65.8516 10.6289 66.1875 10.2422 66.6172 9.96484C67.0508 9.68359 67.5195 9.54297 68.0234 9.54297C68.8477 9.54297 69.4883 9.81445 69.9453 10.3574C70.4023 10.9004 70.6309 11.6777 70.6309 12.6895V13.1406H66.3359C66.3516 13.7656 66.5332 14.2715 66.8809 14.6582C67.2324 15.041 67.6777 15.2324 68.2168 15.2324C68.5996 15.2324 68.9238 15.1543 69.1895 14.998C69.4551 14.8418 69.6875 14.6348 69.8867 14.377L70.5488 14.8926C70.0176 15.709 69.2207 16.1172 68.1582 16.1172ZM68.0234 10.4336C67.5859 10.4336 67.2188 10.5938 66.9219 10.9141C66.625 11.2305 66.4414 11.6758 66.3711 12.25H69.5469V12.168C69.5156 11.6172 69.3672 11.1914 69.1016 10.8906C68.8359 10.5859 68.4766 10.4336 68.0234 10.4336ZM72.916 9.66016L72.9512 10.457C73.4355 9.84766 74.0684 9.54297 74.8496 9.54297C76.1895 9.54297 76.8652 10.2988 76.877 11.8105V16H75.793V11.8047C75.7891 11.3477 75.6836 11.0098 75.4766 10.791C75.2734 10.5723 74.9551 10.4629 74.5215 10.4629C74.1699 10.4629 73.8613 10.5566 73.5957 10.7441C73.3301 10.9316 73.123 11.1777 72.9746 11.4824V16H71.8906V9.66016H72.916ZM79.9824 8.125V9.66016H81.166V10.498H79.9824V14.4297C79.9824 14.6836 80.0352 14.875 80.1406 15.0039C80.2461 15.1289 80.4258 15.1914 80.6797 15.1914C80.8047 15.1914 80.9766 15.168 81.1953 15.1211V16C80.9102 16.0781 80.6328 16.1172 80.3633 16.1172C79.8789 16.1172 79.5137 15.9707 79.2676 15.6777C79.0215 15.3848 78.8984 14.9688 78.8984 14.4297V10.498H77.7441V9.66016H78.8984V8.125H79.9824Z" fill="#070928" fill-opacity="0.75"/>
</svg>
