<svg width="122" height="32" viewBox="0 0 122 32" fill="none" xmlns="http://www.w3.org/2000/svg">
<path d="M45.4766 17.8418C45.3535 18.8945 44.9639 19.708 44.3076 20.2822C43.6559 20.8519 42.7878 21.1367 41.7031 21.1367C40.5273 21.1367 39.584 20.7152 38.873 19.8721C38.1667 19.029 37.8135 17.901 37.8135 16.4883V15.5312C37.8135 14.6061 37.9775 13.7926 38.3057 13.0908C38.6383 12.389 39.1077 11.8512 39.7139 11.4775C40.32 11.0993 41.0218 10.9102 41.8193 10.9102C42.8766 10.9102 43.7243 11.2064 44.3623 11.7988C45.0003 12.3867 45.3717 13.2025 45.4766 14.2461H44.1572C44.0433 13.4531 43.7949 12.8789 43.4121 12.5234C43.0339 12.168 42.5029 11.9902 41.8193 11.9902C40.9808 11.9902 40.3223 12.3001 39.8438 12.9199C39.3698 13.5397 39.1328 14.4215 39.1328 15.5654V16.5293C39.1328 17.6094 39.3584 18.4684 39.8096 19.1064C40.2607 19.7445 40.8919 20.0635 41.7031 20.0635C42.4323 20.0635 42.9906 19.8994 43.3779 19.5713C43.7699 19.2386 44.0296 18.6621 44.1572 17.8418H45.4766ZM50.6514 14.7383C50.46 14.7064 50.2526 14.6904 50.0293 14.6904C49.1999 14.6904 48.637 15.0436 48.3408 15.75V21H47.0762V13.6035H48.3066L48.3271 14.458C48.7419 13.7972 49.3298 13.4668 50.0908 13.4668C50.3369 13.4668 50.5238 13.4987 50.6514 13.5625V14.7383ZM54.7529 21.1367C53.7503 21.1367 52.9346 20.8086 52.3057 20.1523C51.6768 19.4915 51.3623 18.6097 51.3623 17.5068V17.2744C51.3623 16.5407 51.5013 15.8867 51.7793 15.3125C52.0618 14.7337 52.4538 14.2826 52.9551 13.959C53.4609 13.6309 54.0078 13.4668 54.5957 13.4668C55.5573 13.4668 56.3047 13.7835 56.8379 14.417C57.3711 15.0505 57.6377 15.9574 57.6377 17.1377V17.6641H52.627C52.6452 18.3932 52.8571 18.9834 53.2627 19.4346C53.6729 19.8812 54.1924 20.1045 54.8213 20.1045C55.2679 20.1045 55.6462 20.0133 55.9561 19.8311C56.266 19.6488 56.5371 19.4072 56.7695 19.1064L57.542 19.708C56.9222 20.6605 55.9925 21.1367 54.7529 21.1367ZM54.5957 14.5059C54.0853 14.5059 53.6569 14.6927 53.3105 15.0664C52.9642 15.4355 52.75 15.9551 52.668 16.625H56.373V16.5293C56.3366 15.8867 56.1634 15.39 55.8535 15.0391C55.5436 14.6836 55.1243 14.5059 54.5957 14.5059ZM63.6738 21C63.6009 20.8542 63.5417 20.5944 63.4961 20.2207C62.9082 20.8314 62.2064 21.1367 61.3906 21.1367C60.6615 21.1367 60.0622 20.9316 59.5928 20.5215C59.1279 20.1068 58.8955 19.5827 58.8955 18.9492C58.8955 18.179 59.1872 17.582 59.7705 17.1582C60.3584 16.7298 61.1833 16.5156 62.2451 16.5156H63.4756V15.9346C63.4756 15.4925 63.3434 15.1416 63.0791 14.8818C62.8148 14.6175 62.4251 14.4854 61.9102 14.4854C61.459 14.4854 61.0807 14.5993 60.7754 14.8271C60.4701 15.055 60.3174 15.3307 60.3174 15.6543H59.0459C59.0459 15.2852 59.1758 14.9297 59.4355 14.5879C59.6999 14.2415 60.0553 13.9681 60.502 13.7676C60.9531 13.5671 61.4476 13.4668 61.9854 13.4668C62.8376 13.4668 63.5052 13.681 63.9883 14.1094C64.4714 14.5332 64.722 15.1188 64.7402 15.8662V19.2705C64.7402 19.9495 64.8268 20.4896 65 20.8906V21H63.6738ZM61.5752 20.0361C61.9717 20.0361 62.3477 19.9336 62.7031 19.7285C63.0586 19.5234 63.3161 19.2568 63.4756 18.9287V17.4111H62.4844C60.9349 17.4111 60.1602 17.8646 60.1602 18.7715C60.1602 19.168 60.2923 19.4779 60.5566 19.7012C60.821 19.9245 61.1605 20.0361 61.5752 20.0361ZM68.4385 11.8125V13.6035H69.8193V14.5811H68.4385V19.168C68.4385 19.4642 68.5 19.6875 68.623 19.8379C68.7461 19.9837 68.9557 20.0566 69.252 20.0566C69.3978 20.0566 69.5983 20.0293 69.8535 19.9746V21C69.5208 21.0911 69.1973 21.1367 68.8828 21.1367C68.3177 21.1367 67.8916 20.9658 67.6045 20.624C67.3174 20.2822 67.1738 19.7969 67.1738 19.168V14.5811H65.8271V13.6035H67.1738V11.8125H68.4385ZM74.3721 21.1367C73.3695 21.1367 72.5537 20.8086 71.9248 20.1523C71.2959 19.4915 70.9814 18.6097 70.9814 17.5068V17.2744C70.9814 16.5407 71.1204 15.8867 71.3984 15.3125C71.681 14.7337 72.0729 14.2826 72.5742 13.959C73.0801 13.6309 73.627 13.4668 74.2148 13.4668C75.1764 13.4668 75.9238 13.7835 76.457 14.417C76.9902 15.0505 77.2568 15.9574 77.2568 17.1377V17.6641H72.2461C72.2643 18.3932 72.4762 18.9834 72.8818 19.4346C73.292 19.8812 73.8115 20.1045 74.4404 20.1045C74.887 20.1045 75.2653 20.0133 75.5752 19.8311C75.8851 19.6488 76.1562 19.4072 76.3887 19.1064L77.1611 19.708C76.5413 20.6605 75.6117 21.1367 74.3721 21.1367ZM74.2148 14.5059C73.7044 14.5059 73.276 14.6927 72.9297 15.0664C72.5833 15.4355 72.3691 15.9551 72.2871 16.625H75.9922V16.5293C75.9557 15.8867 75.7826 15.39 75.4727 15.0391C75.1628 14.6836 74.7435 14.5059 74.2148 14.5059ZM87.8936 18.4023H83.7236L82.7871 21H81.4336L85.2344 11.0469H86.3828L90.1904 21H88.8438L87.8936 18.4023ZM84.1201 17.3223H87.5039L85.8086 12.667L84.1201 17.3223ZM94.9072 14.7383C94.7158 14.7064 94.5085 14.6904 94.2852 14.6904C93.4557 14.6904 92.8929 15.0436 92.5967 15.75V21H91.332V13.6035H92.5625L92.583 14.458C92.9977 13.7972 93.5856 13.4668 94.3467 13.4668C94.5928 13.4668 94.7796 13.4987 94.9072 13.5625V14.7383ZM98.1338 11.8125V13.6035H99.5146V14.5811H98.1338V19.168C98.1338 19.4642 98.1953 19.6875 98.3184 19.8379C98.4414 19.9837 98.651 20.0566 98.9473 20.0566C99.0931 20.0566 99.2936 20.0293 99.5488 19.9746V21C99.2161 21.0911 98.8926 21.1367 98.5781 21.1367C98.013 21.1367 97.5869 20.9658 97.2998 20.624C97.0127 20.2822 96.8691 19.7969 96.8691 19.168V14.5811H95.5225V13.6035H96.8691V11.8125H98.1338ZM102.372 21H101.107V13.6035H102.372V21ZM101.005 11.6416C101.005 11.4365 101.066 11.2633 101.189 11.1221C101.317 10.9808 101.504 10.9102 101.75 10.9102C101.996 10.9102 102.183 10.9808 102.311 11.1221C102.438 11.2633 102.502 11.4365 102.502 11.6416C102.502 11.8467 102.438 12.0176 102.311 12.1543C102.183 12.291 101.996 12.3594 101.75 12.3594C101.504 12.3594 101.317 12.291 101.189 12.1543C101.066 12.0176 101.005 11.8467 101.005 11.6416ZM107.369 20.1045C107.82 20.1045 108.215 19.9678 108.552 19.6943C108.889 19.4209 109.076 19.0791 109.112 18.6689H110.309C110.286 19.0928 110.14 19.4961 109.871 19.8789C109.602 20.2617 109.242 20.5671 108.791 20.7949C108.344 21.0228 107.87 21.1367 107.369 21.1367C106.362 21.1367 105.56 20.8018 104.963 20.1318C104.37 19.4574 104.074 18.5368 104.074 17.3701V17.1582C104.074 16.4382 104.206 15.7979 104.471 15.2373C104.735 14.6768 105.113 14.2415 105.605 13.9316C106.102 13.6217 106.688 13.4668 107.362 13.4668C108.192 13.4668 108.88 13.7152 109.427 14.2119C109.978 14.7087 110.272 15.3535 110.309 16.1465H109.112C109.076 15.668 108.894 15.276 108.565 14.9707C108.242 14.6608 107.841 14.5059 107.362 14.5059C106.72 14.5059 106.221 14.7383 105.865 15.2031C105.514 15.6634 105.339 16.3311 105.339 17.2061V17.4453C105.339 18.2975 105.514 18.9538 105.865 19.4141C106.216 19.8743 106.717 20.1045 107.369 20.1045ZM113.104 21H111.84V10.5H113.104V21ZM118.204 21.1367C117.201 21.1367 116.386 20.8086 115.757 20.1523C115.128 19.4915 114.813 18.6097 114.813 17.5068V17.2744C114.813 16.5407 114.952 15.8867 115.23 15.3125C115.513 14.7337 115.905 14.2826 116.406 13.959C116.912 13.6309 117.459 13.4668 118.047 13.4668C119.008 13.4668 119.756 13.7835 120.289 14.417C120.822 15.0505 121.089 15.9574 121.089 17.1377V17.6641H116.078C116.096 18.3932 116.308 18.9834 116.714 19.4346C117.124 19.8812 117.644 20.1045 118.272 20.1045C118.719 20.1045 119.097 20.0133 119.407 19.8311C119.717 19.6488 119.988 19.4072 120.221 19.1064L120.993 19.708C120.373 20.6605 119.444 21.1367 118.204 21.1367ZM118.047 14.5059C117.536 14.5059 117.108 14.6927 116.762 15.0664C116.415 15.4355 116.201 15.9551 116.119 16.625H119.824V16.5293C119.788 15.8867 119.615 15.39 119.305 15.0391C118.995 14.6836 118.576 14.5059 118.047 14.5059Z" fill="#070928" fill-opacity="0.75"/>
<rect width="32" height="32" rx="15" fill="#3456FF" fill-opacity="0.75"/>
<g clip-path="url(#clip0_1_211)">
<path d="M22.4167 8.75H9.58333C8.575 8.75 7.75 9.575 7.75 10.5833V23.4167C7.75 24.425 8.575 25.25 9.58333 25.25H22.4167C23.425 25.25 24.25 24.425 24.25 23.4167V10.5833C24.25 9.575 23.425 8.75 22.4167 8.75ZM17.8333 21.5833H11.4167V19.75H17.8333V21.5833ZM20.5833 17.9167H11.4167V16.0833H20.5833V17.9167ZM20.5833 14.25H11.4167V12.4167H20.5833V14.25Z" fill="white"/>
</g>
<defs>
<clipPath id="clip0_1_211">
<rect width="22" height="22" fill="white" transform="translate(5 6)"/>
</clipPath>
</defs>
</svg>
