<svg width="80" height="24" viewBox="0 0 80 24" fill="none" xmlns="http://www.w3.org/2000/svg">
<path d="M15.0566 9.0041C15.5174 7.57708 15.75 6.32791 15.75 5.25083C15.75 2.85216 14.811 1.00342 13.25 1.00342C12.4033 1.00342 12.1412 1.50766 11.8133 2.75024C11.8304 2.68531 11.6504 3.3842 11.5977 3.57145C11.4968 3.93019 11.321 4.54094 11.0707 5.40246C11.064 5.42554 11.0542 5.44729 11.0413 5.46737L8.17457 9.95303C7.49652 11.014 6.49605 11.8295 5.32017 12.2797L4.06293 12.761C3.26956 13.0648 2.80894 13.8945 2.97066 14.7285L3.65682 18.2672C3.82396 19.1291 4.47726 19.8151 5.33006 20.0242L13.5796 22.0461C16.1108 22.6665 18.6692 21.1316 19.3131 18.6062L20.8869 12.4335C21.2622 10.9618 20.3733 9.4646 18.9016 9.08935C18.6796 9.03274 18.4513 9.0041 18.2222 9.0041H15.0566Z" fill="#070928" fill-opacity="0.75"/>
<path d="M31.1211 15.0801H35.1641V16H29.9902V7.46875H31.1211V15.0801ZM37.4551 16H36.3711V9.66016H37.4551V16ZM36.2832 7.97852C36.2832 7.80273 36.3359 7.6543 36.4414 7.5332C36.5508 7.41211 36.7109 7.35156 36.9219 7.35156C37.1328 7.35156 37.293 7.41211 37.4023 7.5332C37.5117 7.6543 37.5664 7.80273 37.5664 7.97852C37.5664 8.1543 37.5117 8.30078 37.4023 8.41797C37.293 8.53516 37.1328 8.59375 36.9219 8.59375C36.7109 8.59375 36.5508 8.53516 36.4414 8.41797C36.3359 8.30078 36.2832 8.1543 36.2832 7.97852ZM40.9648 13.0645L40.2852 13.7734V16H39.2012V7H40.2852V12.4434L40.8652 11.7461L42.8398 9.66016H44.1582L41.6914 12.3086L44.4453 16H43.1738L40.9648 13.0645ZM47.791 16.1172C46.9316 16.1172 46.2324 15.8359 45.6934 15.2734C45.1543 14.707 44.8848 13.9512 44.8848 13.0059V12.8066C44.8848 12.1777 45.0039 11.6172 45.2422 11.125C45.4844 10.6289 45.8203 10.2422 46.25 9.96484C46.6836 9.68359 47.1523 9.54297 47.6562 9.54297C48.4805 9.54297 49.1211 9.81445 49.5781 10.3574C50.0352 10.9004 50.2637 11.6777 50.2637 12.6895V13.1406H45.9688C45.9844 13.7656 46.166 14.2715 46.5137 14.6582C46.8652 15.041 47.3105 15.2324 47.8496 15.2324C48.2324 15.2324 48.5566 15.1543 48.8223 14.998C49.0879 14.8418 49.3203 14.6348 49.5195 14.377L50.1816 14.8926C49.6504 15.709 48.8535 16.1172 47.791 16.1172ZM47.6562 10.4336C47.2188 10.4336 46.8516 10.5938 46.5547 10.9141C46.2578 11.2305 46.0742 11.6758 46.0039 12.25H49.1797V12.168C49.1484 11.6172 49 11.1914 48.7344 10.8906C48.4688 10.5859 48.1094 10.4336 47.6562 10.4336Z" fill="#070928" fill-opacity="0.75"/>
</svg>
