<svg width="74" height="32" viewBox="0 0 74 32" fill="none" xmlns="http://www.w3.org/2000/svg">
<rect width="32" height="32" rx="15" fill="#3456FF" fill-opacity="0.75"/>
<path d="M39.4678 17.1035V21H38.1553V11.0469H41.8262C42.9154 11.0469 43.7676 11.3249 44.3828 11.8809C45.0026 12.4368 45.3125 13.1729 45.3125 14.0889C45.3125 15.055 45.0094 15.8001 44.4033 16.3242C43.8018 16.8438 42.9382 17.1035 41.8125 17.1035H39.4678ZM39.4678 16.0303H41.8262C42.528 16.0303 43.0658 15.8662 43.4395 15.5381C43.8132 15.2054 44 14.7269 44 14.1025C44 13.5101 43.8132 13.0361 43.4395 12.6807C43.0658 12.3252 42.5531 12.1406 41.9014 12.127H39.4678V16.0303ZM48.0537 14.499C48.6143 13.8109 49.3434 13.4668 50.2412 13.4668C51.8044 13.4668 52.5928 14.3486 52.6064 16.1123V21H51.3418V16.1055C51.3372 15.5723 51.2142 15.1781 50.9727 14.9229C50.7357 14.6676 50.3643 14.54 49.8584 14.54C49.4482 14.54 49.0882 14.6494 48.7783 14.8682C48.4684 15.0869 48.2269 15.374 48.0537 15.7295V21H46.7891V10.5H48.0537V14.499ZM54.165 17.2334C54.165 16.5088 54.3063 15.8571 54.5889 15.2783C54.876 14.6995 55.2725 14.2529 55.7783 13.9385C56.2887 13.624 56.8698 13.4668 57.5215 13.4668C58.5286 13.4668 59.3421 13.8154 59.9619 14.5127C60.5863 15.21 60.8984 16.1374 60.8984 17.2949V17.3838C60.8984 18.1038 60.7594 18.751 60.4814 19.3252C60.208 19.8949 59.8138 20.3392 59.2988 20.6582C58.7884 20.9772 58.2005 21.1367 57.5352 21.1367C56.5326 21.1367 55.7191 20.7881 55.0947 20.0908C54.4749 19.3936 54.165 18.4707 54.165 17.3223V17.2334ZM55.4365 17.3838C55.4365 18.2041 55.6257 18.8626 56.0039 19.3594C56.3867 19.8561 56.8971 20.1045 57.5352 20.1045C58.1777 20.1045 58.6882 19.8538 59.0664 19.3525C59.4447 18.8467 59.6338 18.1403 59.6338 17.2334C59.6338 16.4222 59.4401 15.766 59.0527 15.2646C58.6699 14.7588 58.1595 14.5059 57.5215 14.5059C56.8971 14.5059 56.3936 14.7542 56.0107 15.251C55.6279 15.7477 55.4365 16.4587 55.4365 17.3838ZM64.2002 11.8125V13.6035H65.5811V14.5811H64.2002V19.168C64.2002 19.4642 64.2617 19.6875 64.3848 19.8379C64.5078 19.9837 64.7174 20.0566 65.0137 20.0566C65.1595 20.0566 65.36 20.0293 65.6152 19.9746V21C65.2826 21.0911 64.959 21.1367 64.6445 21.1367C64.0794 21.1367 63.6533 20.9658 63.3662 20.624C63.0791 20.2822 62.9355 19.7969 62.9355 19.168V14.5811H61.5889V13.6035H62.9355V11.8125H64.2002ZM66.5928 17.2334C66.5928 16.5088 66.734 15.8571 67.0166 15.2783C67.3037 14.6995 67.7002 14.2529 68.2061 13.9385C68.7165 13.624 69.2975 13.4668 69.9492 13.4668C70.9564 13.4668 71.7699 13.8154 72.3896 14.5127C73.014 15.21 73.3262 16.1374 73.3262 17.2949V17.3838C73.3262 18.1038 73.1872 18.751 72.9092 19.3252C72.6357 19.8949 72.2415 20.3392 71.7266 20.6582C71.2161 20.9772 70.6283 21.1367 69.9629 21.1367C68.9603 21.1367 68.1468 20.7881 67.5225 20.0908C66.9027 19.3936 66.5928 18.4707 66.5928 17.3223V17.2334ZM67.8643 17.3838C67.8643 18.2041 68.0534 18.8626 68.4316 19.3594C68.8145 19.8561 69.3249 20.1045 69.9629 20.1045C70.6055 20.1045 71.1159 19.8538 71.4941 19.3525C71.8724 18.8467 72.0615 18.1403 72.0615 17.2334C72.0615 16.4222 71.8678 15.766 71.4805 15.2646C71.0977 14.7588 70.5872 14.5059 69.9492 14.5059C69.3249 14.5059 68.8213 14.7542 68.4385 15.251C68.0557 15.7477 67.8643 16.4587 67.8643 17.3838Z" fill="#070928" fill-opacity="0.75"/>
<g clip-path="url(#clip0_1_197)">
<path d="M24.25 22.4167V9.58333C24.25 8.575 23.425 7.75 22.4167 7.75H9.58333C8.575 7.75 7.75 8.575 7.75 9.58333V22.4167C7.75 23.425 8.575 24.25 9.58333 24.25H22.4167C23.425 24.25 24.25 23.425 24.25 22.4167ZM12.7917 17.375L15.0833 20.1342L18.2917 16L22.4167 21.5H9.58333L12.7917 17.375Z" fill="white"/>
</g>
<defs>
<clipPath id="clip0_1_197">
<rect width="22" height="22" fill="white" transform="translate(5 5)"/>
</clipPath>
</defs>
</svg>
