<svg width="122" height="32" viewBox="0 0 122 32" fill="none" xmlns="http://www.w3.org/2000/svg">
<path d="M45.8848 13.3945H43.1426V21H42.0234V13.3945H39.2871V12.4688H45.8848V13.3945ZM49.5996 15.6328C49.4355 15.6055 49.2578 15.5918 49.0664 15.5918C48.3555 15.5918 47.873 15.8945 47.6191 16.5V21H46.5352V14.6602H47.5898L47.6074 15.3926C47.9629 14.8262 48.4668 14.543 49.1191 14.543C49.3301 14.543 49.4902 14.5703 49.5996 14.625V15.6328ZM52.7812 19.4121L54.2578 14.6602H55.418L52.8691 21.9785C52.4746 23.0332 51.8477 23.5605 50.9883 23.5605L50.7832 23.543L50.3789 23.4668V22.5879L50.6719 22.6113C51.0391 22.6113 51.3242 22.5371 51.5273 22.3887C51.7344 22.2402 51.9043 21.9688 52.0371 21.5742L52.2773 20.9297L50.0156 14.6602H51.1992L52.7812 19.4121ZM60.6621 17.6602V21H59.5371V12.4688H62.6836C63.6172 12.4688 64.3477 12.707 64.875 13.1836C65.4062 13.6602 65.6719 14.291 65.6719 15.0762C65.6719 15.9043 65.4121 16.543 64.8926 16.9922C64.377 17.4375 63.6367 17.6602 62.6719 17.6602H60.6621ZM60.6621 16.7402H62.6836C63.2852 16.7402 63.7461 16.5996 64.0664 16.3184C64.3867 16.0332 64.5469 15.623 64.5469 15.0879C64.5469 14.5801 64.3867 14.1738 64.0664 13.8691C63.7461 13.5645 63.3066 13.4062 62.748 13.3945H60.6621V16.7402ZM70.002 15.6328C69.8379 15.6055 69.6602 15.5918 69.4688 15.5918C68.7578 15.5918 68.2754 15.8945 68.0215 16.5V21H66.9375V14.6602H67.9922L68.0098 15.3926C68.3652 14.8262 68.8691 14.543 69.5215 14.543C69.7324 14.543 69.8926 14.5703 70.002 14.625V15.6328ZM73.5176 21.1172C72.6582 21.1172 71.959 20.8359 71.4199 20.2734C70.8809 19.707 70.6113 18.9512 70.6113 18.0059V17.8066C70.6113 17.1777 70.7305 16.6172 70.9688 16.125C71.2109 15.6289 71.5469 15.2422 71.9766 14.9648C72.4102 14.6836 72.8789 14.543 73.3828 14.543C74.207 14.543 74.8477 14.8145 75.3047 15.3574C75.7617 15.9004 75.9902 16.6777 75.9902 17.6895V18.1406H71.6953C71.7109 18.7656 71.8926 19.2715 72.2402 19.6582C72.5918 20.041 73.0371 20.2324 73.5762 20.2324C73.959 20.2324 74.2832 20.1543 74.5488 19.998C74.8145 19.8418 75.0469 19.6348 75.2461 19.377L75.9082 19.8926C75.377 20.709 74.5801 21.1172 73.5176 21.1172ZM73.3828 15.4336C72.9453 15.4336 72.5781 15.5938 72.2812 15.9141C71.9844 16.2305 71.8008 16.6758 71.7305 17.25H74.9062V17.168C74.875 16.6172 74.7266 16.1914 74.4609 15.8906C74.1953 15.5859 73.8359 15.4336 73.3828 15.4336ZM78.2695 14.6602L78.2988 15.3633C78.7637 14.8164 79.3906 14.543 80.1797 14.543C81.0664 14.543 81.6699 14.8828 81.9902 15.5625C82.2012 15.2578 82.4746 15.0117 82.8105 14.8242C83.1504 14.6367 83.5508 14.543 84.0117 14.543C85.4023 14.543 86.1094 15.2793 86.1328 16.752V21H85.0488V16.8164C85.0488 16.3633 84.9453 16.0254 84.7383 15.8027C84.5312 15.5762 84.1836 15.4629 83.6953 15.4629C83.293 15.4629 82.959 15.584 82.6934 15.8262C82.4277 16.0645 82.2734 16.3867 82.2305 16.793V21H81.1406V16.8457C81.1406 15.9238 80.6895 15.4629 79.7871 15.4629C79.0762 15.4629 78.5898 15.7656 78.3281 16.3711V21H77.2441V14.6602H78.2695ZM88.9512 21H87.8672V14.6602H88.9512V21ZM87.7793 12.9785C87.7793 12.8027 87.832 12.6543 87.9375 12.5332C88.0469 12.4121 88.207 12.3516 88.418 12.3516C88.6289 12.3516 88.7891 12.4121 88.8984 12.5332C89.0078 12.6543 89.0625 12.8027 89.0625 12.9785C89.0625 13.1543 89.0078 13.3008 88.8984 13.418C88.7891 13.5352 88.6289 13.5938 88.418 13.5938C88.207 13.5938 88.0469 13.5352 87.9375 13.418C87.832 13.3008 87.7793 13.1543 87.7793 12.9785ZM94.6055 20.373C94.1836 20.8691 93.5645 21.1172 92.748 21.1172C92.0723 21.1172 91.5566 20.9219 91.2012 20.5312C90.8496 20.1367 90.6719 19.5547 90.668 18.7852V14.6602H91.752V18.7559C91.752 19.7168 92.1426 20.1973 92.9238 20.1973C93.752 20.1973 94.3027 19.8887 94.5762 19.2715V14.6602H95.6602V21H94.6289L94.6055 20.373ZM98.332 14.6602L98.3613 15.3633C98.8262 14.8164 99.4531 14.543 100.242 14.543C101.129 14.543 101.732 14.8828 102.053 15.5625C102.264 15.2578 102.537 15.0117 102.873 14.8242C103.213 14.6367 103.613 14.543 104.074 14.543C105.465 14.543 106.172 15.2793 106.195 16.752V21H105.111V16.8164C105.111 16.3633 105.008 16.0254 104.801 15.8027C104.594 15.5762 104.246 15.4629 103.758 15.4629C103.355 15.4629 103.021 15.584 102.756 15.8262C102.49 16.0645 102.336 16.3867 102.293 16.793V21H101.203V16.8457C101.203 15.9238 100.752 15.4629 99.8496 15.4629C99.1387 15.4629 98.6523 15.7656 98.3906 16.3711V21H97.3066V14.6602H98.332Z" fill="#070928" fill-opacity="0.75"/>
<rect width="32" height="32" rx="15" fill="#3456FF" fill-opacity="0.75"/>
<path d="M16 19C19.866 19 23 15.866 23 12C23 8.13401 19.866 5 16 5C12.134 5 9 8.13401 9 12C9 15.866 12.134 19 16 19Z" fill="white"/>
<path d="M12.21 17.89L11 27L16 24L21 27L19.79 17.88" fill="white"/>
</svg>
