<svg width="80" height="24" viewBox="0 0 80 24" fill="none" xmlns="http://www.w3.org/2000/svg">
<path d="M33.5039 12.1973C32.5391 11.9199 31.8359 11.5801 31.3945 11.1777C30.957 10.7715 30.7383 10.2715 30.7383 9.67773C30.7383 9.00586 31.0059 8.45117 31.541 8.01367C32.0801 7.57227 32.7793 7.35156 33.6387 7.35156C34.2246 7.35156 34.7461 7.46484 35.2031 7.69141C35.6641 7.91797 36.0195 8.23047 36.2695 8.62891C36.5234 9.02734 36.6504 9.46289 36.6504 9.93555H35.5195C35.5195 9.41992 35.3555 9.01562 35.0273 8.72266C34.6992 8.42578 34.2363 8.27734 33.6387 8.27734C33.084 8.27734 32.6504 8.40039 32.3379 8.64648C32.0293 8.88867 31.875 9.22656 31.875 9.66016C31.875 10.0078 32.0215 10.3027 32.3145 10.5449C32.6113 10.7832 33.1133 11.002 33.8203 11.2012C34.5312 11.4004 35.0859 11.6211 35.4844 11.8633C35.8867 12.1016 36.1836 12.3809 36.375 12.7012C36.5703 13.0215 36.668 13.3984 36.668 13.832C36.668 14.5234 36.3984 15.0781 35.8594 15.4961C35.3203 15.9102 34.5996 16.1172 33.6973 16.1172C33.1113 16.1172 32.5645 16.0059 32.0566 15.7832C31.5488 15.5566 31.1562 15.248 30.8789 14.8574C30.6055 14.4668 30.4688 14.0234 30.4688 13.5273H31.5996C31.5996 14.043 31.7891 14.4512 32.168 14.752C32.5508 15.0488 33.0605 15.1973 33.6973 15.1973C34.291 15.1973 34.7461 15.0762 35.0625 14.834C35.3789 14.5918 35.5371 14.2617 35.5371 13.8438C35.5371 13.4258 35.3906 13.1035 35.0977 12.877C34.8047 12.6465 34.2734 12.4199 33.5039 12.1973ZM41.8594 16C41.7969 15.875 41.7461 15.6523 41.707 15.332C41.2031 15.8555 40.6016 16.1172 39.9023 16.1172C39.2773 16.1172 38.7637 15.9414 38.3613 15.5898C37.9629 15.2344 37.7637 14.7852 37.7637 14.2422C37.7637 13.582 38.0137 13.0703 38.5137 12.707C39.0176 12.3398 39.7246 12.1562 40.6348 12.1562H41.6895V11.6582C41.6895 11.2793 41.5762 10.9785 41.3496 10.7559C41.123 10.5293 40.7891 10.416 40.3477 10.416C39.9609 10.416 39.6367 10.5137 39.375 10.709C39.1133 10.9043 38.9824 11.1406 38.9824 11.418H37.8926C37.8926 11.1016 38.0039 10.7969 38.2266 10.5039C38.4531 10.207 38.7578 9.97266 39.1406 9.80078C39.5273 9.62891 39.9512 9.54297 40.4121 9.54297C41.1426 9.54297 41.7148 9.72656 42.1289 10.0938C42.543 10.457 42.7578 10.959 42.7734 11.5996V14.5176C42.7734 15.0996 42.8477 15.5625 42.9961 15.9062V16H41.8594ZM40.0605 15.1738C40.4004 15.1738 40.7227 15.0859 41.0273 14.9102C41.332 14.7344 41.5527 14.5059 41.6895 14.2246V12.9238H40.8398C39.5117 12.9238 38.8477 13.3125 38.8477 14.0898C38.8477 14.4297 38.9609 14.6953 39.1875 14.8867C39.4141 15.0781 39.7051 15.1738 40.0605 15.1738ZM46.4707 14.5293L48.041 9.66016H49.1484L46.875 16H46.0488L43.752 9.66016H44.8594L46.4707 14.5293ZM52.7402 16.1172C51.8809 16.1172 51.1816 15.8359 50.6426 15.2734C50.1035 14.707 49.834 13.9512 49.834 13.0059V12.8066C49.834 12.1777 49.9531 11.6172 50.1914 11.125C50.4336 10.6289 50.7695 10.2422 51.1992 9.96484C51.6328 9.68359 52.1016 9.54297 52.6055 9.54297C53.4297 9.54297 54.0703 9.81445 54.5273 10.3574C54.9844 10.9004 55.2129 11.6777 55.2129 12.6895V13.1406H50.918C50.9336 13.7656 51.1152 14.2715 51.4629 14.6582C51.8145 15.041 52.2598 15.2324 52.7988 15.2324C53.1816 15.2324 53.5059 15.1543 53.7715 14.998C54.0371 14.8418 54.2695 14.6348 54.4688 14.377L55.1309 14.8926C54.5996 15.709 53.8027 16.1172 52.7402 16.1172ZM52.6055 10.4336C52.168 10.4336 51.8008 10.5938 51.5039 10.9141C51.207 11.2305 51.0234 11.6758 50.9531 12.25H54.1289V12.168C54.0977 11.6172 53.9492 11.1914 53.6836 10.8906C53.418 10.5859 53.0586 10.4336 52.6055 10.4336ZM56.209 12.7773C56.209 11.8047 56.4395 11.0234 56.9004 10.4336C57.3613 9.83984 57.9648 9.54297 58.7109 9.54297C59.4531 9.54297 60.041 9.79688 60.4746 10.3047V7H61.5586V16H60.5625L60.5098 15.3203C60.0762 15.8516 59.4727 16.1172 58.6992 16.1172C57.9648 16.1172 57.3652 15.8164 56.9004 15.2148C56.4395 14.6133 56.209 13.8281 56.209 12.8594V12.7773ZM57.293 12.9004C57.293 13.6191 57.4414 14.1816 57.7383 14.5879C58.0352 14.9941 58.4453 15.1973 58.9688 15.1973C59.6562 15.1973 60.1582 14.8887 60.4746 14.2715V11.3594C60.1504 10.7617 59.6523 10.4629 58.9805 10.4629C58.4492 10.4629 58.0352 10.668 57.7383 11.0781C57.4414 11.4883 57.293 12.0957 57.293 12.9004Z" fill="#070928" fill-opacity="0.75"/>
<path d="M19 21L12 16L5 21V5C5 4.46957 5.21071 3.96086 5.58579 3.58579C5.96086 3.21071 6.46957 3 7 3H17C17.5304 3 18.0391 3.21071 18.4142 3.58579C18.7893 3.96086 19 4.46957 19 5V21Z" fill="#070928" fill-opacity="0.75"/>
</svg>
