<svg width="118" height="32" viewBox="0 0 118 32" fill="none" xmlns="http://www.w3.org/2000/svg">
<path d="M38.5039 16.1973C37.5391 15.9199 36.8359 15.5801 36.3945 15.1777C35.957 14.7715 35.7383 14.2715 35.7383 13.6777C35.7383 13.0059 36.0059 12.4512 36.541 12.0137C37.0801 11.5723 37.7793 11.3516 38.6387 11.3516C39.2246 11.3516 39.7461 11.4648 40.2031 11.6914C40.6641 11.918 41.0195 12.2305 41.2695 12.6289C41.5234 13.0273 41.6504 13.4629 41.6504 13.9355H40.5195C40.5195 13.4199 40.3555 13.0156 40.0273 12.7227C39.6992 12.4258 39.2363 12.2773 38.6387 12.2773C38.084 12.2773 37.6504 12.4004 37.3379 12.6465C37.0293 12.8887 36.875 13.2266 36.875 13.6602C36.875 14.0078 37.0215 14.3027 37.3145 14.5449C37.6113 14.7832 38.1133 15.002 38.8203 15.2012C39.5312 15.4004 40.0859 15.6211 40.4844 15.8633C40.8867 16.1016 41.1836 16.3809 41.375 16.7012C41.5703 17.0215 41.668 17.3984 41.668 17.832C41.668 18.5234 41.3984 19.0781 40.8594 19.4961C40.3203 19.9102 39.5996 20.1172 38.6973 20.1172C38.1113 20.1172 37.5645 20.0059 37.0566 19.7832C36.5488 19.5566 36.1562 19.248 35.8789 18.8574C35.6055 18.4668 35.4688 18.0234 35.4688 17.5273H36.5996C36.5996 18.043 36.7891 18.4512 37.168 18.752C37.5508 19.0488 38.0605 19.1973 38.6973 19.1973C39.291 19.1973 39.7461 19.0762 40.0625 18.834C40.3789 18.5918 40.5371 18.2617 40.5371 17.8438C40.5371 17.4258 40.3906 17.1035 40.0977 16.877C39.8047 16.6465 39.2734 16.4199 38.5039 16.1973ZM46.8594 20C46.7969 19.875 46.7461 19.6523 46.707 19.332C46.2031 19.8555 45.6016 20.1172 44.9023 20.1172C44.2773 20.1172 43.7637 19.9414 43.3613 19.5898C42.9629 19.2344 42.7637 18.7852 42.7637 18.2422C42.7637 17.582 43.0137 17.0703 43.5137 16.707C44.0176 16.3398 44.7246 16.1562 45.6348 16.1562H46.6895V15.6582C46.6895 15.2793 46.5762 14.9785 46.3496 14.7559C46.123 14.5293 45.7891 14.416 45.3477 14.416C44.9609 14.416 44.6367 14.5137 44.375 14.709C44.1133 14.9043 43.9824 15.1406 43.9824 15.418H42.8926C42.8926 15.1016 43.0039 14.7969 43.2266 14.5039C43.4531 14.207 43.7578 13.9727 44.1406 13.8008C44.5273 13.6289 44.9512 13.543 45.4121 13.543C46.1426 13.543 46.7148 13.7266 47.1289 14.0938C47.543 14.457 47.7578 14.959 47.7734 15.5996V18.5176C47.7734 19.0996 47.8477 19.5625 47.9961 19.9062V20H46.8594ZM45.0605 19.1738C45.4004 19.1738 45.7227 19.0859 46.0273 18.9102C46.332 18.7344 46.5527 18.5059 46.6895 18.2246V16.9238H45.8398C44.5117 16.9238 43.8477 17.3125 43.8477 18.0898C43.8477 18.4297 43.9609 18.6953 44.1875 18.8867C44.4141 19.0781 44.7051 19.1738 45.0605 19.1738ZM51.4707 18.5293L53.041 13.6602H54.1484L51.875 20H51.0488L48.752 13.6602H49.8594L51.4707 18.5293ZM57.7402 20.1172C56.8809 20.1172 56.1816 19.8359 55.6426 19.2734C55.1035 18.707 54.834 17.9512 54.834 17.0059V16.8066C54.834 16.1777 54.9531 15.6172 55.1914 15.125C55.4336 14.6289 55.7695 14.2422 56.1992 13.9648C56.6328 13.6836 57.1016 13.543 57.6055 13.543C58.4297 13.543 59.0703 13.8145 59.5273 14.3574C59.9844 14.9004 60.2129 15.6777 60.2129 16.6895V17.1406H55.918C55.9336 17.7656 56.1152 18.2715 56.4629 18.6582C56.8145 19.041 57.2598 19.2324 57.7988 19.2324C58.1816 19.2324 58.5059 19.1543 58.7715 18.998C59.0371 18.8418 59.2695 18.6348 59.4688 18.377L60.1309 18.8926C59.5996 19.709 58.8027 20.1172 57.7402 20.1172ZM57.6055 14.4336C57.168 14.4336 56.8008 14.5938 56.5039 14.9141C56.207 15.2305 56.0234 15.6758 55.9531 16.25H59.1289V16.168C59.0977 15.6172 58.9492 15.1914 58.6836 14.8906C58.418 14.5859 58.0586 14.4336 57.6055 14.4336ZM61.209 16.7773C61.209 15.8047 61.4395 15.0234 61.9004 14.4336C62.3613 13.8398 62.9648 13.543 63.7109 13.543C64.4531 13.543 65.041 13.7969 65.4746 14.3047V11H66.5586V20H65.5625L65.5098 19.3203C65.0762 19.8516 64.4727 20.1172 63.6992 20.1172C62.9648 20.1172 62.3652 19.8164 61.9004 19.2148C61.4395 18.6133 61.209 17.8281 61.209 16.8594V16.7773ZM62.293 16.9004C62.293 17.6191 62.4414 18.1816 62.7383 18.5879C63.0352 18.9941 63.4453 19.1973 63.9688 19.1973C64.6562 19.1973 65.1582 18.8887 65.4746 18.2715V15.3594C65.1504 14.7617 64.6523 14.4629 63.9805 14.4629C63.4492 14.4629 63.0352 14.668 62.7383 15.0781C62.4414 15.4883 62.293 16.0957 62.293 16.9004Z" fill="#070928" fill-opacity="0.75"/>
<rect width="32" height="32" rx="15" fill="#3456FF" fill-opacity="0.75"/>
<path d="M23 25L16 20L9 25V9C9 8.46957 9.21071 7.96086 9.58579 7.58579C9.96086 7.21071 10.4696 7 11 7H21C21.5304 7 22.0391 7.21071 22.4142 7.58579C22.7893 7.96086 23 8.46957 23 9V25Z" fill="white"/>
</svg>
