<svg width="61" height="24" viewBox="0 0 61 24" fill="none" xmlns="http://www.w3.org/2000/svg">
<path d="M2.58543 1.57918C2.32923 1.45108 2.02242 1.4801 1.79478 1.65397C1.56714 1.82785 1.45841 2.1162 1.51459 2.39709L3.6189 9.67165C3.69906 9.94873 3.931 10.1553 4.21548 10.2029L12.75 11.6323C13.152 11.7127 13.152 12.2873 12.75 12.3677L4.21548 13.797C3.931 13.8447 3.69906 14.0512 3.6189 14.3283L1.51459 21.6028C1.45841 21.8838 1.56714 22.1721 1.79478 22.3461C2.02242 22.5199 2.32923 22.5489 2.58543 22.4208L22.0854 12.6708C22.3395 12.5438 22.5 12.2841 22.5 12C22.5 11.7159 22.3395 11.4562 22.0854 11.3292L2.58543 1.57918Z" fill="#070928" fill-opacity="0.75"/>
<path d="M32.5039 13.1973C31.5391 12.9199 30.8359 12.5801 30.3945 12.1777C29.957 11.7715 29.7383 11.2715 29.7383 10.6777C29.7383 10.0059 30.0059 9.45117 30.541 9.01367C31.0801 8.57227 31.7793 8.35156 32.6387 8.35156C33.2246 8.35156 33.7461 8.46484 34.2031 8.69141C34.6641 8.91797 35.0195 9.23047 35.2695 9.62891C35.5234 10.0273 35.6504 10.4629 35.6504 10.9355H34.5195C34.5195 10.4199 34.3555 10.0156 34.0273 9.72266C33.6992 9.42578 33.2363 9.27734 32.6387 9.27734C32.084 9.27734 31.6504 9.40039 31.3379 9.64648C31.0293 9.88867 30.875 10.2266 30.875 10.6602C30.875 11.0078 31.0215 11.3027 31.3145 11.5449C31.6113 11.7832 32.1133 12.002 32.8203 12.2012C33.5312 12.4004 34.0859 12.6211 34.4844 12.8633C34.8867 13.1016 35.1836 13.3809 35.375 13.7012C35.5703 14.0215 35.668 14.3984 35.668 14.832C35.668 15.5234 35.3984 16.0781 34.8594 16.4961C34.3203 16.9102 33.5996 17.1172 32.6973 17.1172C32.1113 17.1172 31.5645 17.0059 31.0566 16.7832C30.5488 16.5566 30.1562 16.248 29.8789 15.8574C29.6055 15.4668 29.4688 15.0234 29.4688 14.5273H30.5996C30.5996 15.043 30.7891 15.4512 31.168 15.752C31.5508 16.0488 32.0605 16.1973 32.6973 16.1973C33.291 16.1973 33.7461 16.0762 34.0625 15.834C34.3789 15.5918 34.5371 15.2617 34.5371 14.8438C34.5371 14.4258 34.3906 14.1035 34.0977 13.877C33.8047 13.6465 33.2734 13.4199 32.5039 13.1973ZM39.5762 17.1172C38.7168 17.1172 38.0176 16.8359 37.4785 16.2734C36.9395 15.707 36.6699 14.9512 36.6699 14.0059V13.8066C36.6699 13.1777 36.7891 12.6172 37.0273 12.125C37.2695 11.6289 37.6055 11.2422 38.0352 10.9648C38.4688 10.6836 38.9375 10.543 39.4414 10.543C40.2656 10.543 40.9062 10.8145 41.3633 11.3574C41.8203 11.9004 42.0488 12.6777 42.0488 13.6895V14.1406H37.7539C37.7695 14.7656 37.9512 15.2715 38.2988 15.6582C38.6504 16.041 39.0957 16.2324 39.6348 16.2324C40.0176 16.2324 40.3418 16.1543 40.6074 15.998C40.873 15.8418 41.1055 15.6348 41.3047 15.377L41.9668 15.8926C41.4355 16.709 40.6387 17.1172 39.5762 17.1172ZM39.4414 11.4336C39.0039 11.4336 38.6367 11.5938 38.3398 11.9141C38.043 12.2305 37.8594 12.6758 37.7891 13.25H40.9648V13.168C40.9336 12.6172 40.7852 12.1914 40.5195 11.8906C40.2539 11.5859 39.8945 11.4336 39.4414 11.4336ZM44.334 10.6602L44.3691 11.457C44.8535 10.8477 45.4863 10.543 46.2676 10.543C47.6074 10.543 48.2832 11.2988 48.2949 12.8105V17H47.2109V12.8047C47.207 12.3477 47.1016 12.0098 46.8945 11.791C46.6914 11.5723 46.373 11.4629 45.9395 11.4629C45.5879 11.4629 45.2793 11.5566 45.0137 11.7441C44.748 11.9316 44.541 12.1777 44.3926 12.4824V17H43.3086V10.6602H44.334ZM49.666 13.7773C49.666 12.8047 49.8965 12.0234 50.3574 11.4336C50.8184 10.8398 51.4219 10.543 52.168 10.543C52.9102 10.543 53.498 10.7969 53.9316 11.3047V8H55.0156V17H54.0195L53.9668 16.3203C53.5332 16.8516 52.9297 17.1172 52.1562 17.1172C51.4219 17.1172 50.8223 16.8164 50.3574 16.2148C49.8965 15.6133 49.666 14.8281 49.666 13.8594V13.7773ZM50.75 13.9004C50.75 14.6191 50.8984 15.1816 51.1953 15.5879C51.4922 15.9941 51.9023 16.1973 52.4258 16.1973C53.1133 16.1973 53.6152 15.8887 53.9316 15.2715V12.3594C53.6074 11.7617 53.1094 11.4629 52.4375 11.4629C51.9062 11.4629 51.4922 11.668 51.1953 12.0781C50.8984 12.4883 50.75 13.0957 50.75 13.9004Z" fill="#070928" fill-opacity="0.75"/>
</svg>
