<svg width="74" height="24" viewBox="0 0 74 24" fill="none" xmlns="http://www.w3.org/2000/svg">
<path d="M32.5039 12.1973C31.5391 11.9199 30.8359 11.5801 30.3945 11.1777C29.957 10.7715 29.7383 10.2715 29.7383 9.67773C29.7383 9.00586 30.0059 8.45117 30.541 8.01367C31.0801 7.57227 31.7793 7.35156 32.6387 7.35156C33.2246 7.35156 33.7461 7.46484 34.2031 7.69141C34.6641 7.91797 35.0195 8.23047 35.2695 8.62891C35.5234 9.02734 35.6504 9.46289 35.6504 9.93555H34.5195C34.5195 9.41992 34.3555 9.01562 34.0273 8.72266C33.6992 8.42578 33.2363 8.27734 32.6387 8.27734C32.084 8.27734 31.6504 8.40039 31.3379 8.64648C31.0293 8.88867 30.875 9.22656 30.875 9.66016C30.875 10.0078 31.0215 10.3027 31.3145 10.5449C31.6113 10.7832 32.1133 11.002 32.8203 11.2012C33.5312 11.4004 34.0859 11.6211 34.4844 11.8633C34.8867 12.1016 35.1836 12.3809 35.375 12.7012C35.5703 13.0215 35.668 13.3984 35.668 13.832C35.668 14.5234 35.3984 15.0781 34.8594 15.4961C34.3203 15.9102 33.5996 16.1172 32.6973 16.1172C32.1113 16.1172 31.5645 16.0059 31.0566 15.7832C30.5488 15.5566 30.1562 15.248 29.8789 14.8574C29.6055 14.4668 29.4688 14.0234 29.4688 13.5273H30.5996C30.5996 14.043 30.7891 14.4512 31.168 14.752C31.5508 15.0488 32.0605 15.1973 32.6973 15.1973C33.291 15.1973 33.7461 15.0762 34.0625 14.834C34.3789 14.5918 34.5371 14.2617 34.5371 13.8438C34.5371 13.4258 34.3906 13.1035 34.0977 12.877C33.8047 12.6465 33.2734 12.4199 32.5039 12.1973ZM38.0293 10.4277C38.5098 9.83789 39.1348 9.54297 39.9043 9.54297C41.2441 9.54297 41.9199 10.2988 41.9316 11.8105V16H40.8477V11.8047C40.8438 11.3477 40.7383 11.0098 40.5312 10.791C40.3281 10.5723 40.0098 10.4629 39.5762 10.4629C39.2246 10.4629 38.916 10.5566 38.6504 10.7441C38.3848 10.9316 38.1777 11.1777 38.0293 11.4824V16H36.9453V7H38.0293V10.4277ZM47.4688 16C47.4062 15.875 47.3555 15.6523 47.3164 15.332C46.8125 15.8555 46.2109 16.1172 45.5117 16.1172C44.8867 16.1172 44.373 15.9414 43.9707 15.5898C43.5723 15.2344 43.373 14.7852 43.373 14.2422C43.373 13.582 43.623 13.0703 44.123 12.707C44.627 12.3398 45.334 12.1562 46.2441 12.1562H47.2988V11.6582C47.2988 11.2793 47.1855 10.9785 46.959 10.7559C46.7324 10.5293 46.3984 10.416 45.957 10.416C45.5703 10.416 45.2461 10.5137 44.9844 10.709C44.7227 10.9043 44.5918 11.1406 44.5918 11.418H43.502C43.502 11.1016 43.6133 10.7969 43.8359 10.5039C44.0625 10.207 44.3672 9.97266 44.75 9.80078C45.1367 9.62891 45.5605 9.54297 46.0215 9.54297C46.752 9.54297 47.3242 9.72656 47.7383 10.0938C48.1523 10.457 48.3672 10.959 48.3828 11.5996V14.5176C48.3828 15.0996 48.457 15.5625 48.6055 15.9062V16H47.4688ZM45.6699 15.1738C46.0098 15.1738 46.332 15.0859 46.6367 14.9102C46.9414 14.7344 47.1621 14.5059 47.2988 14.2246V12.9238H46.4492C45.1211 12.9238 44.457 13.3125 44.457 14.0898C44.457 14.4297 44.5703 14.6953 44.7969 14.8867C45.0234 15.0781 45.3145 15.1738 45.6699 15.1738ZM53.1465 10.6328C52.9824 10.6055 52.8047 10.5918 52.6133 10.5918C51.9023 10.5918 51.4199 10.8945 51.166 11.5V16H50.082V9.66016H51.1367L51.1543 10.3926C51.5098 9.82617 52.0137 9.54297 52.666 9.54297C52.877 9.54297 53.0371 9.57031 53.1465 9.625V10.6328ZM56.6621 16.1172C55.8027 16.1172 55.1035 15.8359 54.5645 15.2734C54.0254 14.707 53.7559 13.9512 53.7559 13.0059V12.8066C53.7559 12.1777 53.875 11.6172 54.1133 11.125C54.3555 10.6289 54.6914 10.2422 55.1211 9.96484C55.5547 9.68359 56.0234 9.54297 56.5273 9.54297C57.3516 9.54297 57.9922 9.81445 58.4492 10.3574C58.9062 10.9004 59.1348 11.6777 59.1348 12.6895V13.1406H54.8398C54.8555 13.7656 55.0371 14.2715 55.3848 14.6582C55.7363 15.041 56.1816 15.2324 56.7207 15.2324C57.1035 15.2324 57.4277 15.1543 57.6934 14.998C57.959 14.8418 58.1914 14.6348 58.3906 14.377L59.0527 14.8926C58.5215 15.709 57.7246 16.1172 56.6621 16.1172ZM56.5273 10.4336C56.0898 10.4336 55.7227 10.5938 55.4258 10.9141C55.1289 11.2305 54.9453 11.6758 54.875 12.25H58.0508V12.168C58.0195 11.6172 57.8711 11.1914 57.6055 10.8906C57.3398 10.5859 56.9805 10.4336 56.5273 10.4336Z" fill="#070928" fill-opacity="0.75"/>
<path d="M16.2857 12C19.126 12 21.4286 9.69746 21.4286 6.85714C21.4286 4.01682 19.126 1.71429 16.2857 1.71429C13.4454 1.71429 11.1429 4.01682 11.1429 6.85714C11.1429 7.68643 11.3391 8.46987 11.6877 9.16354L8.80902 11.1883C8.12145 10.1291 6.92825 9.42857 5.57142 9.42857C3.44118 9.42857 1.71428 11.1555 1.71428 13.2857C1.71428 15.416 3.44118 17.1429 5.57142 17.1429C6.77243 17.1429 7.84524 16.5939 8.55265 15.7333L13.0112 18.3341C12.9113 18.6331 12.8571 18.9531 12.8571 19.2857C12.8571 20.9426 14.2003 22.2857 15.8571 22.2857C17.514 22.2857 18.8571 20.9426 18.8571 19.2857C18.8571 17.6289 17.514 16.2857 15.8571 16.2857C14.9955 16.2857 14.2186 16.649 13.6714 17.2308L9.19234 14.618C9.34517 14.2028 9.42857 13.754 9.42857 13.2857C9.42857 12.9798 9.39291 12.6822 9.32562 12.3969L12.4044 10.2314C13.3473 11.315 14.7365 12 16.2857 12Z" fill="#070928" fill-opacity="0.75"/>
</svg>
