<svg width="84" height="32" viewBox="0 0 84 32" fill="none" xmlns="http://www.w3.org/2000/svg">
<path d="M41.4502 19.2568L44.2939 11.0469H45.7295L42.0381 21H40.876L37.1914 11.0469H38.6201L41.4502 19.2568ZM48.2451 21H46.9805V13.6035H48.2451V21ZM46.8779 11.6416C46.8779 11.4365 46.9395 11.2633 47.0625 11.1221C47.1901 10.9808 47.377 10.9102 47.623 10.9102C47.8691 10.9102 48.056 10.9808 48.1836 11.1221C48.3112 11.2633 48.375 11.4365 48.375 11.6416C48.375 11.8467 48.3112 12.0176 48.1836 12.1543C48.056 12.291 47.8691 12.3594 47.623 12.3594C47.377 12.3594 47.1901 12.291 47.0625 12.1543C46.9395 12.0176 46.8779 11.8467 46.8779 11.6416ZM49.9678 17.2402C49.9678 16.1055 50.2367 15.194 50.7744 14.5059C51.3122 13.8132 52.0163 13.4668 52.8867 13.4668C53.7526 13.4668 54.4385 13.763 54.9443 14.3555V10.5H56.209V21H55.0469L54.9854 20.207C54.4795 20.8268 53.7754 21.1367 52.873 21.1367C52.0163 21.1367 51.3167 20.7858 50.7744 20.084C50.2367 19.3822 49.9678 18.4661 49.9678 17.3359V17.2402ZM51.2324 17.3838C51.2324 18.2223 51.4056 18.8786 51.752 19.3525C52.0983 19.8265 52.5768 20.0635 53.1875 20.0635C53.9896 20.0635 54.5752 19.7035 54.9443 18.9834V15.5859C54.5661 14.8887 53.985 14.54 53.2012 14.54C52.5814 14.54 52.0983 14.7793 51.752 15.2578C51.4056 15.7363 51.2324 16.445 51.2324 17.3838ZM59.5518 21H58.2871V13.6035H59.5518V21ZM58.1846 11.6416C58.1846 11.4365 58.2461 11.2633 58.3691 11.1221C58.4967 10.9808 58.6836 10.9102 58.9297 10.9102C59.1758 10.9102 59.3626 10.9808 59.4902 11.1221C59.6178 11.2633 59.6816 11.4365 59.6816 11.6416C59.6816 11.8467 59.6178 12.0176 59.4902 12.1543C59.3626 12.291 59.1758 12.3594 58.9297 12.3594C58.6836 12.3594 58.4967 12.291 58.3691 12.1543C58.2461 12.0176 58.1846 11.8467 58.1846 11.6416ZM64.6514 21.1367C63.6488 21.1367 62.833 20.8086 62.2041 20.1523C61.5752 19.4915 61.2607 18.6097 61.2607 17.5068V17.2744C61.2607 16.5407 61.3997 15.8867 61.6777 15.3125C61.9603 14.7337 62.3522 14.2826 62.8535 13.959C63.3594 13.6309 63.9062 13.4668 64.4941 13.4668C65.4557 13.4668 66.2031 13.7835 66.7363 14.417C67.2695 15.0505 67.5361 15.9574 67.5361 17.1377V17.6641H62.5254C62.5436 18.3932 62.7555 18.9834 63.1611 19.4346C63.5713 19.8812 64.0908 20.1045 64.7197 20.1045C65.1663 20.1045 65.5446 20.0133 65.8545 19.8311C66.1644 19.6488 66.4355 19.4072 66.668 19.1064L67.4404 19.708C66.8206 20.6605 65.891 21.1367 64.6514 21.1367ZM64.4941 14.5059C63.9837 14.5059 63.5553 14.6927 63.209 15.0664C62.8626 15.4355 62.6484 15.9551 62.5664 16.625H66.2715V16.5293C66.235 15.8867 66.0618 15.39 65.752 15.0391C65.4421 14.6836 65.0228 14.5059 64.4941 14.5059ZM68.6709 17.2334C68.6709 16.5088 68.8122 15.8571 69.0947 15.2783C69.3818 14.6995 69.7783 14.2529 70.2842 13.9385C70.7946 13.624 71.3757 13.4668 72.0273 13.4668C73.0345 13.4668 73.848 13.8154 74.4678 14.5127C75.0921 15.21 75.4043 16.1374 75.4043 17.2949V17.3838C75.4043 18.1038 75.2653 18.751 74.9873 19.3252C74.7139 19.8949 74.3197 20.3392 73.8047 20.6582C73.2943 20.9772 72.7064 21.1367 72.041 21.1367C71.0384 21.1367 70.2249 20.7881 69.6006 20.0908C68.9808 19.3936 68.6709 18.4707 68.6709 17.3223V17.2334ZM69.9424 17.3838C69.9424 18.2041 70.1315 18.8626 70.5098 19.3594C70.8926 19.8561 71.403 20.1045 72.041 20.1045C72.6836 20.1045 73.194 19.8538 73.5723 19.3525C73.9505 18.8467 74.1396 18.1403 74.1396 17.2334C74.1396 16.4222 73.946 15.766 73.5586 15.2646C73.1758 14.7588 72.6654 14.5059 72.0273 14.5059C71.403 14.5059 70.8994 14.7542 70.5166 15.251C70.1338 15.7477 69.9424 16.4587 69.9424 17.3838ZM81.2969 19.0381C81.2969 18.6963 81.167 18.432 80.9072 18.2451C80.652 18.0537 80.2031 17.8896 79.5605 17.7529C78.9225 17.6162 78.4144 17.4521 78.0361 17.2607C77.6624 17.0693 77.3844 16.8415 77.2021 16.5771C77.0244 16.3128 76.9355 15.9984 76.9355 15.6338C76.9355 15.0277 77.1908 14.515 77.7012 14.0957C78.2161 13.6764 78.8724 13.4668 79.6699 13.4668C80.5085 13.4668 81.1875 13.6833 81.707 14.1162C82.2311 14.5492 82.4932 15.1029 82.4932 15.7773H81.2217C81.2217 15.431 81.0736 15.1325 80.7773 14.8818C80.4857 14.6312 80.1165 14.5059 79.6699 14.5059C79.2096 14.5059 78.8496 14.6061 78.5898 14.8066C78.3301 15.0072 78.2002 15.2692 78.2002 15.5928C78.2002 15.8981 78.321 16.1283 78.5625 16.2832C78.804 16.4382 79.2393 16.5863 79.8682 16.7275C80.5016 16.8688 81.0143 17.0374 81.4062 17.2334C81.7982 17.4294 82.0876 17.6663 82.2744 17.9443C82.4658 18.2178 82.5615 18.5527 82.5615 18.9492C82.5615 19.61 82.2972 20.141 81.7686 20.542C81.2399 20.9385 80.554 21.1367 79.7109 21.1367C79.1185 21.1367 78.5944 21.0319 78.1387 20.8223C77.6829 20.6126 77.3252 20.321 77.0654 19.9473C76.8102 19.569 76.6826 19.1611 76.6826 18.7236H77.9473C77.9701 19.1475 78.1387 19.4847 78.4531 19.7354C78.7721 19.9814 79.1914 20.1045 79.7109 20.1045C80.1895 20.1045 80.5723 20.0088 80.8594 19.8174C81.151 19.6214 81.2969 19.3617 81.2969 19.0381Z" fill="#070928" fill-opacity="0.75"/>
<rect width="32" height="32" rx="15" fill="#3456FF" fill-opacity="0.75"/>
<g clip-path="url(#clip0_1_201)">
<path d="M16 6.83334C10.94 6.83334 6.83333 10.94 6.83333 16C6.83333 21.06 10.94 25.1667 16 25.1667C21.06 25.1667 25.1667 21.06 25.1667 16C25.1667 10.94 21.06 6.83334 16 6.83334ZM14.1667 20.125V11.875L19.6667 16L14.1667 20.125Z" fill="white"/>
</g>
<defs>
<clipPath id="clip0_1_201">
<rect width="22" height="22" fill="white" transform="translate(5 5)"/>
</clipPath>
</defs>
</svg>
