<svg width="89" height="32" viewBox="0 0 89 32" fill="none" xmlns="http://www.w3.org/2000/svg">
<path d="M40.3018 17.8623L40.4932 19.1748L40.7734 17.9922L42.7422 11.0469H43.8496L45.7705 17.9922L46.0439 19.1953L46.2559 17.8555L47.8008 11.0469H49.1201L46.707 21H45.5107L43.46 13.7471L43.3027 12.9883L43.1455 13.7471L41.0195 21H39.8232L37.417 11.0469H38.7295L40.3018 17.8623ZM49.8311 17.2334C49.8311 16.5088 49.9723 15.8571 50.2549 15.2783C50.542 14.6995 50.9385 14.2529 51.4443 13.9385C51.9548 13.624 52.5358 13.4668 53.1875 13.4668C54.1947 13.4668 55.0081 13.8154 55.6279 14.5127C56.2523 15.21 56.5645 16.1374 56.5645 17.2949V17.3838C56.5645 18.1038 56.4255 18.751 56.1475 19.3252C55.874 19.8949 55.4798 20.3392 54.9648 20.6582C54.4544 20.9772 53.8665 21.1367 53.2012 21.1367C52.1986 21.1367 51.3851 20.7881 50.7607 20.0908C50.141 19.3936 49.8311 18.4707 49.8311 17.3223V17.2334ZM51.1025 17.3838C51.1025 18.2041 51.2917 18.8626 51.6699 19.3594C52.0527 19.8561 52.5632 20.1045 53.2012 20.1045C53.8438 20.1045 54.3542 19.8538 54.7324 19.3525C55.1107 18.8467 55.2998 18.1403 55.2998 17.2334C55.2998 16.4222 55.1061 15.766 54.7188 15.2646C54.3359 14.7588 53.8255 14.5059 53.1875 14.5059C52.5632 14.5059 52.0596 14.7542 51.6768 15.251C51.2939 15.7477 51.1025 16.4587 51.1025 17.3838ZM61.7256 14.7383C61.5342 14.7064 61.3268 14.6904 61.1035 14.6904C60.2741 14.6904 59.7113 15.0436 59.415 15.75V21H58.1504V13.6035H59.3809L59.4014 14.458C59.8161 13.7972 60.404 13.4668 61.165 13.4668C61.4111 13.4668 61.598 13.4987 61.7256 13.5625V14.7383ZM64.959 17.5752L64.166 18.4023V21H62.9014V10.5H64.166V16.8506L64.8428 16.0371L67.1465 13.6035H68.6846L65.8066 16.6934L69.0195 21H67.5361L64.959 17.5752ZM71.3643 21H70.0996V13.6035H71.3643V21ZM69.9971 11.6416C69.9971 11.4365 70.0586 11.2633 70.1816 11.1221C70.3092 10.9808 70.4961 10.9102 70.7422 10.9102C70.9883 10.9102 71.1751 10.9808 71.3027 11.1221C71.4303 11.2633 71.4941 11.4365 71.4941 11.6416C71.4941 11.8467 71.4303 12.0176 71.3027 12.1543C71.1751 12.291 70.9883 12.3594 70.7422 12.3594C70.4961 12.3594 70.3092 12.291 70.1816 12.1543C70.0586 12.0176 69.9971 11.8467 69.9971 11.6416ZM74.5908 13.6035L74.6318 14.5332C75.1969 13.8223 75.9352 13.4668 76.8467 13.4668C78.4098 13.4668 79.1982 14.3486 79.2119 16.1123V21H77.9473V16.1055C77.9427 15.5723 77.8197 15.1781 77.5781 14.9229C77.3411 14.6676 76.9697 14.54 76.4639 14.54C76.0537 14.54 75.6937 14.6494 75.3838 14.8682C75.0739 15.0869 74.8324 15.374 74.6592 15.7295V21H73.3945V13.6035H74.5908ZM80.8184 17.2402C80.8184 16.0872 81.085 15.1712 81.6182 14.4922C82.1514 13.8086 82.8577 13.4668 83.7373 13.4668C84.6396 13.4668 85.3438 13.7858 85.8496 14.4238L85.9111 13.6035H87.0664V20.8223C87.0664 21.7793 86.7816 22.5335 86.2119 23.085C85.6468 23.6364 84.8857 23.9121 83.9287 23.9121C83.3955 23.9121 82.8737 23.7982 82.3633 23.5703C81.8529 23.3424 81.4632 23.0303 81.1943 22.6338L81.8506 21.875C82.3929 22.5449 83.056 22.8799 83.8398 22.8799C84.4551 22.8799 84.9336 22.7067 85.2754 22.3604C85.6217 22.014 85.7949 21.5264 85.7949 20.8975V20.2617C85.2891 20.8451 84.5986 21.1367 83.7236 21.1367C82.8577 21.1367 82.1559 20.7881 81.6182 20.0908C81.085 19.3936 80.8184 18.4434 80.8184 17.2402ZM82.0898 17.3838C82.0898 18.2178 82.2607 18.874 82.6025 19.3525C82.9443 19.8265 83.4229 20.0635 84.0381 20.0635C84.8356 20.0635 85.4212 19.7012 85.7949 18.9766V15.5996C85.4076 14.8932 84.8265 14.54 84.0518 14.54C83.4365 14.54 82.9557 14.7793 82.6094 15.2578C82.263 15.7363 82.0898 16.445 82.0898 17.3838Z" fill="#070928" fill-opacity="0.75"/>
<rect width="32" height="32" rx="15" fill="#3456FF" fill-opacity="0.75"/>
<g clip-path="url(#clip0_1_205)">
<path d="M23.3333 10.5H19.6667V8.66668C19.6667 7.64918 18.8508 6.83334 17.8333 6.83334H14.1667C13.1492 6.83334 12.3333 7.64918 12.3333 8.66668V10.5H8.66667C7.64917 10.5 6.8425 11.3158 6.8425 12.3333L6.83333 22.4167C6.83333 23.4342 7.64917 24.25 8.66667 24.25H23.3333C24.3508 24.25 25.1667 23.4342 25.1667 22.4167V12.3333C25.1667 11.3158 24.3508 10.5 23.3333 10.5ZM17.8333 10.5H14.1667V8.66668H17.8333V10.5Z" fill="white"/>
</g>
<defs>
<clipPath id="clip0_1_205">
<rect width="22" height="22" fill="white" transform="translate(5 5)"/>
</clipPath>
</defs>
</svg>
